<svg width="64" height="64" viewBox="0 0 64 64" fill="none" xmlns="http://www.w3.org/2000/svg">
<rect width="64" height="64" rx="6.4" fill="#1C313A"/>
<path d="M9.6001 54.4L32.0001 9.59998L54.4001 54.4" stroke="white" stroke-width="3" stroke-linecap="round" stroke-linejoin="round"/>
<line x1="4" y1="31" x2="4" y2="32.84" stroke="#8BF6FF" stroke-width="2" stroke-linecap="round"/>
<line x1="4" y1="31" x2="4" y2="32.84" stroke="#8BF6FF" stroke-width="2" stroke-linecap="round"/>
<path d="M60 31V32.84" stroke="#8BF6FF" stroke-width="2" stroke-linecap="round"/>
<path d="M60 31V32.84" stroke="#8BF6FF" stroke-width="2" stroke-linecap="round"/>
<line x1="9" y1="26" x2="9" y2="38.72" stroke="#8BF6FF" stroke-width="2" stroke-linecap="round"/>
<line x1="9" y1="26" x2="9" y2="38.72" stroke="#8BF6FF" stroke-width="2" stroke-linecap="round"/>
<path d="M55 26V38.72" stroke="#8BF6FF" stroke-width="2" stroke-linecap="round"/>
<path d="M55 26V38.72" stroke="#8BF6FF" stroke-width="2" stroke-linecap="round"/>
<line x1="15" y1="21" x2="15" y2="42.68" stroke="#8BF6FF" stroke-width="2" stroke-linecap="round"/>
<line x1="15" y1="21" x2="15" y2="42.68" stroke="#8BF6FF" stroke-width="2" stroke-linecap="round"/>
<line x1="49" y1="21" x2="49" y2="42.68" stroke="#8BF6FF" stroke-width="2" stroke-linecap="round"/>
<line x1="49" y1="21" x2="49" y2="42.68" stroke="#8BF6FF" stroke-width="2" stroke-linecap="round"/>
<line x1="21" y1="27" x2="21" y2="36.52" stroke="#8BF6FF" stroke-width="2" stroke-linecap="round"/>
<line x1="21" y1="27" x2="21" y2="36.52" stroke="#8BF6FF" stroke-width="2" stroke-linecap="round"/>
<line x1="43" y1="27" x2="43" y2="36.52" stroke="#8BF6FF" stroke-width="2" stroke-linecap="round"/>
<line x1="43" y1="27" x2="43" y2="36.52" stroke="#8BF6FF" stroke-width="2" stroke-linecap="round"/>
<line x1="27.2" y1="30.76" x2="27.2" y2="32.92" stroke="#8BF6FF" stroke-width="2" stroke-linecap="round"/>
<line x1="27.2" y1="30.76" x2="27.2" y2="32.92" stroke="#8BF6FF" stroke-width="2" stroke-linecap="round"/>
<line x1="37" y1="31" x2="37" y2="33.16" stroke="#8BF6FF" stroke-width="2" stroke-linecap="round"/>
<line x1="37" y1="31" x2="37" y2="33.16" stroke="#8BF6FF" stroke-width="2" stroke-linecap="round"/>
<line x1="32" y1="32" x2="32" y2="31.92" stroke="#8BF6FF" stroke-width="2" stroke-linecap="round"/>
<line x1="32" y1="32" x2="32" y2="31.92" stroke="#8BF6FF" stroke-width="2" stroke-linecap="round"/>
</svg>
